<svg width="32" height="30" viewBox="0 0 32 30" fill="none" xmlns="http://www.w3.org/2000/svg">
<path d="M23.2 0C20.416 0 17.744 1.296 16 3.344C14.256 1.296 11.584 0 8.8 0C3.872 0 0 3.872 0 8.8C0 14.848 5.44 19.776 13.68 27.264L16 29.36L18.32 27.248C26.56 19.776 32 14.848 32 8.8C32 3.872 28.128 0 23.2 0ZM16.16 24.88L16 25.04L15.84 24.88C8.224 17.984 3.2 13.424 3.2 8.8C3.2 5.6 5.6 3.2 8.8 3.2C11.264 3.2 13.664 4.784 14.512 6.976H17.504C18.336 4.784 20.736 3.2 23.2 3.2C26.4 3.2 28.8 5.6 28.8 8.8C28.8 13.424 23.776 17.984 16.16 24.88Z" fill="#FF0000"/>
</svg>
